<?xml version="1.0" encoding="utf-8"?>
<!-- Generator: Adobe Illustrator 19.2.0, SVG Export Plug-In . SVG Version: 6.00 Build 0)  -->
<svg version="1.1" id="图层_1" xmlns="http://www.w3.org/2000/svg" xmlns:xlink="http://www.w3.org/1999/xlink" x="0px" y="0px"
	 viewBox="0 0 200 100" style="enable-background:new 0 0 200 100;" xml:space="preserve">
<style type="text/css">
	.st0{fill:#8AC249;}
	.st1{display:none;fill:#202020;}
	.st2{font-family:'SourceHanSansCN-Regular-GBpc-EUC-H';}
	.st3{font-size:16.6186px;}
	.st4{fill:#202020;}
</style>
<g>
	<path class="st0" d="M27.6,49.3c-2.4,0.5-4.8,0.7-7.3,0.7c-4.8,0-7.1-2-7.1-6.2V32.7c0-4.2,2.2-6.2,7.1-6.2c2.5,0,5,0.3,7.3,0.7
		l0.9,0.2l0.7-6.6l-0.7-0.2c-2.3-0.7-5.1-1.1-8.4-1.1c-5.3,0-9.2,1.2-11.5,3.6c-2,2.1-3.1,5.4-3.1,9.7v10.8c0,4.5,1,7.8,3,9.8
		c2.2,2.3,6.1,3.5,11.6,3.5c3.4,0,6.2-0.4,8.5-1.1l0.7-0.2l-0.8-6.6L27.6,49.3z"/>
	<polygon class="st0" points="36.5,56.3 44.1,56.3 44.1,5.2 36.5,6.4 	"/>
	<path class="st0" d="M66.7,19.6c-4.9,0-8.8,1.4-11.3,4c-2.3,2.4-3.5,5.6-3.5,9.7v10c0,4.1,1.2,7.3,3.5,9.7c2.6,2.6,6.4,4,11.3,4
		c5,0,8.8-1.3,11.3-4c2.3-2.4,3.5-5.7,3.5-9.7v-10c0-4.1-1.2-7.3-3.5-9.7C75.5,20.9,71.6,19.6,66.7,19.6z M59.5,33.1
		c0-4.5,2.3-6.7,7.2-6.7c4.9,0,7.2,2.1,7.2,6.7v10.4c0,4.5-2.3,6.7-7.2,6.7c-4.9,0-7.2-2.1-7.2-6.7V33.1z"/>
	<polygon class="st0" points="100.3,47.8 91.5,20.2 83.9,20.2 95.8,56.3 104.9,56.3 116.8,20.2 109.2,20.2 	"/>
	<path class="st0" d="M194,19.2l-1,0.4c-3,1.2-5.8,2.8-8.4,4.7l-0.3-4.1h-6.8v36h7.6V32.2c1.5-1,2.9-2,4.3-2.8
		c1.9-1.1,3.5-2.1,5-2.8l0.5-0.3L194,19.2z"/>
	<path class="st0" d="M168.5,35.7c0.8-2.7,1.4-4.3,0.9-6.3c-1.8-7.4-10.1-3.9-10.1-3.9c-1.2,0.4-2.3,0.9-3.3,1.4
		c3.3-4.9,2.8-9.2,2.8-9.2c-0.8-7.9-6.6-7.6-6.6-7.6c-3.8-0.2-6.8,4-6.8,4c-2.7-0.8-4.3-1.4-6.3-0.9c-7.4,1.8-3.9,10.1-3.9,10.1
		c0.4,1,0.8,1.9,1.2,2.8c-4.2-2.3-7.8-2-7.8-2c-7.9,0.8-7.6,6.6-7.6,6.6c-0.2,3.8,4,6.8,4,6.8c-0.8,2.7-1.4,4.3-0.9,6.3
		c1.8,7.4,10.1,3.9,10.1,3.9c0.9-0.3,1.8-0.7,2.6-1.1c-2.6,4.5-2.2,8.3-2.2,8.3c0.8,7.9,6.6,7.6,6.6,7.6c3.8,0.2,6.8-4,6.8-4
		c2.7,0.8,4.3,1.4,6.3,0.9c7.4-1.8,3.9-10.1,3.9-10.1c-0.3-0.7-0.5-1.4-0.8-2.1c4.1,2.2,7.5,1.8,7.5,1.8c7.9-0.8,7.6-6.6,7.6-6.6
		C172.7,38.8,168.5,35.7,168.5,35.7z M151.3,45.1v6.2l-3.4,1.8v-8.3c-3.6-1.1-6-1.6-7.4-1.6c-2.1,0-3.9,0.7-5.3,2.1l-0.5-0.5
		c5-7.4,8.6-15,10.8-22.7c1.5-0.8,3.4-1.8,5.6-3.3l0.2,0.5c-1.6,3.8-3.5,7.4-5.7,10.8l-7.2,11.3c1.2-0.4,2.6-0.5,4.1-0.5
		c1.6,0,3.4,0.3,5.4,0.8V28.1l3.4-1.8v16c2.5,0,4.3-1.1,5.6-3.4l0.7,0.3C156.9,42.2,154.8,44.2,151.3,45.1z"/>
</g>
<text transform="matrix(1 0 0 1 6.606 89.3265)" class="st1 st2 st3">四叶草信息技术有限公司</text>
<g>
	<path class="st4" d="M21.6,76.9v13.1h-1.3v-1.1h-11V90H8.1V76.9H21.6z M20.4,87.6v-9.6h-3.2v5.2c0,0.5,0.1,0.7,0.4,0.7h1.6
		c0.3,0,0.7,0,1-0.1c0,0.3,0.1,0.7,0.1,1C20,85,19.6,85,19.2,85h-1.8c-1.2,0-1.4-0.5-1.4-1.8v-5.2h-2.3c-0.1,4.5-0.5,6.9-3.4,8.3
		c-0.1-0.3-0.5-0.7-0.7-1c2.5-1.2,2.8-3.3,2.9-7.3H9.4v9.6H20.4z"/>
	<path class="st4" d="M29.8,86.6h-3.6v1.3h-1.1V76.9h4.7V86.6z M26.2,78.1v7.2h2.4v-7.2H26.2z M39.5,82.4h-4v8.3h-1.3v-8.3h-4v-1.2
		h4v-5.5h1.3v5.5h4V82.4z"/>
	<path class="st4" d="M56.3,87.9h-6.8v2.7h-1.2v-2.7h-6.7v-1.1h6.7v-1.6h-4.8v-5.8h10.8v5.8h-4.9v1.6h6.8V87.9z M45.5,77.8h-3.8
		v-1.1h3.8v-1.2h1.2v1.2h4.5v-1.2h1.2v1.2h3.9v1.1h-3.9V79h-1.2v-1.3h-4.5V79h-1.2V77.8z M44.8,81.7h8.4v-1.4h-8.4V81.7z M44.8,84.1
		h8.4v-1.4h-8.4V84.1z"/>
	<path class="st4" d="M63.1,75.8c-0.4,1.1-0.9,2.2-1.4,3.3v11.6h-1.1v-9.6c-0.5,0.8-1,1.5-1.6,2.1c-0.1-0.3-0.5-0.9-0.7-1.1
		c1.5-1.6,2.9-4.1,3.7-6.6L63.1,75.8z M73.4,78.2v1H62.9v-1H73.4z M63.9,85.3h8.4v5.3h-1.1V90h-6.2v0.6h-1.1V85.3z M72.1,81.6h-8v-1
		h8V81.6z M64.1,82.9h8v1h-8V82.9z M64.9,86.3v2.6h6.2v-2.6H64.9z M67.9,78.1c-0.2-0.6-0.7-1.5-1.1-2.2l1-0.4c0.5,0.7,1,1.6,1.2,2.2
		L67.9,78.1z"/>
	<path class="st4" d="M75.6,89.3c0.6-0.9,1.3-2.3,1.7-3.4l1.1,0.5c-0.4,1-1,2.5-1.6,3.4L75.6,89.3z M82.6,84.8H78V77h3.9
		c0.2-0.5,0.5-1.2,0.6-1.7l1.4,0.2c-0.2,0.5-0.5,1-0.8,1.5h5v7.9H82.6c0.9,0.7,1.9,1.8,2.3,2.5l-1,0.6c-0.4-0.7-1.4-1.8-2.2-2.6
		L82.6,84.8z M85.3,89.2c0.9,0,1-0.2,1.1-1.9c0.3,0.2,0.8,0.4,1.1,0.5c-0.2,2.1-0.6,2.6-2.2,2.6h-3.8c-1.9,0-2.4-0.3-2.4-1.7v-2.7
		h1.2v2.7c0,0.4,0.2,0.5,1.3,0.5H85.3z M79.2,79.3h7.7v-1.3h-7.7V79.3z M79.2,81.6h7.7v-1.3h-7.7V81.6z M79.2,83.8h7.7v-1.3h-7.7
		V83.8z M88.5,85.7c0.8,1,1.6,2.4,1.9,3.3l-1.1,0.5c-0.3-0.9-1.1-2.3-1.8-3.4L88.5,85.7z"/>
	<path class="st4" d="M98,83.8c-0.7,0.2-1.3,0.4-2,0.6v4.7c0,0.7-0.2,1-0.6,1.2c-0.4,0.2-1.1,0.2-2.2,0.2c-0.1-0.3-0.2-0.8-0.4-1.1
		c0.8,0,1.5,0,1.7,0c0.2,0,0.3-0.1,0.3-0.3v-4.3l-2,0.6l-0.3-1.2c0.7-0.1,1.5-0.3,2.3-0.6v-3.6h-2.1v-1.2h2.1v-3.3H96v3.3h1.8v1.2
		H96v3.3c0.6-0.2,1.2-0.3,1.8-0.5L98,83.8z M106.8,81.9c-0.7,2.3-1.9,4.1-3.4,5.5c1.2,1,2.6,1.7,4.3,2.1c-0.3,0.2-0.6,0.7-0.8,1.1
		c-1.7-0.5-3.2-1.3-4.4-2.4c-1.4,1.1-3,1.8-4.7,2.4c-0.1-0.3-0.4-0.8-0.7-1.1c1.6-0.4,3.2-1.1,4.5-2.1c-1.2-1.2-2.1-2.8-2.7-4.6l0,0
		h-0.5v-1.1h3.6v-2.5h-3.9V78h3.9v-2.6h1.2V78h4v1.1h-4v2.5h2.6l0.2,0L106.8,81.9z M100.1,82.8c0.6,1.4,1.4,2.8,2.4,3.8
		c1.1-1,2.1-2.3,2.7-3.8H100.1z"/>
	<path class="st4" d="M118.3,80.8c1.5,2.6,4.2,5.3,6.4,6.7c-0.3,0.2-0.8,0.7-1,1.1c-2-1.4-4.3-4-5.9-6.5v8.5h-1.3v-8
		c-1.6,2.6-3.8,4.8-6.1,6.1c-0.2-0.3-0.6-0.8-0.9-1c2.6-1.3,5.2-4,6.7-6.8H110v-1.2h6.5v-4.2h1.3v4.2h6.3v1.2H118.3z M121.8,79
		c-0.6-0.7-1.9-1.7-3-2.5l0.9-0.7c1,0.7,2.3,1.7,3,2.3L121.8,79z"/>
	<path class="st4" d="M132.5,78.7c-0.3,0.6-0.6,1.3-1,1.9h8V89c0,0.7-0.2,1.1-0.7,1.3c-0.5,0.2-1.5,0.2-2.9,0.2
		c0-0.4-0.2-0.9-0.4-1.2c1.1,0,2.1,0,2.4,0c0.3,0,0.4-0.1,0.4-0.3v-1.7h-6.9v3.3h-1.2v-8c-0.8,1-1.7,1.9-2.8,2.6
		c-0.1-0.2-0.5-0.7-0.8-0.9c2-1.3,3.5-3.3,4.6-5.5H127v-1.2h4.7c0.3-0.7,0.5-1.4,0.7-2.1l1.2,0.3c-0.2,0.6-0.4,1.2-0.6,1.8h8.5v1.2
		H132.5z M138.3,81.8h-6.9v1.7h6.9V81.8z M138.3,86.3v-1.7h-6.9v1.7H138.3z"/>
	<path class="st4" d="M149.4,76.5c-0.5,1.3-1.1,3-1.7,4.3c1.2,1.4,1.5,2.6,1.5,3.6c0,0.9-0.2,1.6-0.6,1.9c-0.2,0.2-0.5,0.3-0.9,0.3
		c-0.3,0.1-0.7,0.1-1.1,0c0-0.3-0.1-0.8-0.3-1.1c0.4,0,0.7,0,1,0c0.2,0,0.4-0.1,0.5-0.2c0.2-0.2,0.3-0.6,0.3-1.1
		c0-0.9-0.3-2-1.5-3.4c0.5-1.2,1-2.6,1.3-3.7h-2.4v13.3h-1.1V76.1h4l0.2,0L149.4,76.5z M158.5,84.8c-0.8,0.7-1.9,1.4-2.9,2
		c0.8,1.2,1.9,2.1,3.2,2.6c-0.3,0.2-0.6,0.7-0.8,1c-2.6-1.2-4.1-3.8-5-7.1h-1.6v5.5l2.9-0.7c0,0.4,0,0.9,0.1,1.1
		c-3.4,0.9-3.9,1.1-4.3,1.3c-0.1-0.3-0.3-0.8-0.5-1c0.3-0.1,0.6-0.5,0.6-1.2V76.1h7.3v7.3h-3.4c0.2,0.9,0.6,1.7,1,2.5
		c0.9-0.6,1.9-1.4,2.6-2L158.5,84.8z M151.4,77.2v2h4.9v-2H151.4z M151.4,82.3h4.9v-2.1h-4.9V82.3z"/>
	<path class="st4" d="M166.6,76.3c-1.1,2.7-2.9,5.2-4.7,6.8c-0.3-0.2-0.8-0.7-1.1-0.9c1.9-1.5,3.5-3.8,4.5-6.3L166.6,76.3z
		 M171.2,84.2c1.4,1.8,3.1,4.1,4,5.6l-1.2,0.7c-0.3-0.5-0.7-1.2-1.1-1.9c-8.7,0.6-9.6,0.6-10.2,0.9c-0.1-0.3-0.3-0.9-0.5-1.3
		c0.4-0.1,0.9-0.6,1.5-1.4c0.6-0.7,2.7-3.6,4-6.4l1.3,0.6c-1.4,2.5-3,5-4.6,6.9l7.7-0.5c-0.7-0.9-1.4-1.9-2-2.7L171.2,84.2z
		 M170.9,75.8c1.1,2.3,3.2,4.9,4.9,6.3c-0.3,0.2-0.8,0.7-1,1c-1.7-1.6-3.8-4.4-5.1-6.8L170.9,75.8z"/>
	<path class="st4" d="M191.7,88.8c0,0.8-0.2,1.3-0.7,1.5c-0.6,0.2-1.6,0.2-3.1,0.2c0-0.4-0.2-1-0.4-1.3c1.1,0,2.3,0,2.6,0
		c0.3,0,0.4-0.1,0.4-0.4V77.7h-11.9v-1.2h13.2V88.8z M188.5,80.5h-9.9v-1.1h9.9V80.5z M180.8,87.6v1.2h-1.2v-6.5h7.8v5.3H180.8z
		 M180.8,83.4v3.1h5.3v-3.1H180.8z"/>
</g>
</svg>
